<?xml version="1.0" encoding="UTF-8" standalone="no"?>
<!DOCTYPE svg PUBLIC "-//W3C//DTD SVG 1.1//EN"
 "http://www.w3.org/Graphics/SVG/1.1/DTD/svg11.dtd">
<!-- Generated by graphviz version 2.43.0 (0)
 -->
<!-- Title: G Pages: 1 -->
<svg width="1305pt" height="1161pt"
 viewBox="0.00 0.00 1305.00 1160.55" xmlns="http://www.w3.org/2000/svg" xmlns:xlink="http://www.w3.org/1999/xlink">
<g id="graph0" class="graph" transform="scale(1 1) rotate(0) translate(4 1156.55)">
<title>G</title>
<polygon fill="white" stroke="transparent" points="-4,4 -4,-1156.55 1301,-1156.55 1301,4 -4,4"/>
<g id="clust1" class="cluster">
<title>cluster_sources</title>
<path fill="none" stroke="black" d="M20,-328.55C20,-328.55 174,-328.55 174,-328.55 180,-328.55 186,-334.55 186,-340.55 186,-340.55 186,-837.55 186,-837.55 186,-843.55 180,-849.55 174,-849.55 174,-849.55 20,-849.55 20,-849.55 14,-849.55 8,-843.55 8,-837.55 8,-837.55 8,-340.55 8,-340.55 8,-334.55 14,-328.55 20,-328.55"/>
<text text-anchor="middle" x="64.5" y="-837.55" font-family="Helvetica,sans-Serif" font-size="10.00">Public Data Sources</text>
</g>
<g id="clust2" class="cluster">
<title>cluster_ingest</title>
<path fill="none" stroke="black" d="M231,-552.55C231,-552.55 1076,-552.55 1076,-552.55 1082,-552.55 1088,-558.55 1088,-564.55 1088,-564.55 1088,-613.55 1088,-613.55 1088,-619.55 1082,-625.55 1076,-625.55 1076,-625.55 231,-625.55 231,-625.55 225,-625.55 219,-619.55 219,-613.55 219,-613.55 219,-564.55 219,-564.55 219,-558.55 225,-552.55 231,-552.55"/>
<text text-anchor="middle" x="298.5" y="-613.55" font-family="Helvetica,sans-Serif" font-size="10.00">Ingest &amp; Normalization Layer</text>
</g>
<g id="clust3" class="cluster">
<title>cluster_pipeline</title>
<path fill="none" stroke="black" d="M474,-176.55C474,-176.55 874,-176.55 874,-176.55 880,-176.55 886,-182.55 886,-188.55 886,-188.55 886,-405.55 886,-405.55 886,-411.55 880,-417.55 874,-417.55 874,-417.55 474,-417.55 474,-417.55 468,-417.55 462,-411.55 462,-405.55 462,-405.55 462,-188.55 462,-188.55 462,-182.55 468,-176.55 474,-176.55"/>
<text text-anchor="middle" x="522" y="-405.55" font-family="Helvetica,sans-Serif" font-size="10.00">Processing &amp; Storage</text>
</g>
<g id="clust4" class="cluster">
<title>cluster_nlp</title>
<path fill="none" stroke="black" d="M218,-11.55C218,-11.55 407,-11.55 407,-11.55 413,-11.55 419,-17.55 419,-23.55 419,-23.55 419,-294.55 419,-294.55 419,-300.55 413,-306.55 407,-306.55 407,-306.55 218,-306.55 218,-306.55 212,-306.55 206,-300.55 206,-294.55 206,-294.55 206,-23.55 206,-23.55 206,-17.55 212,-11.55 218,-11.55"/>
<text text-anchor="middle" x="255" y="-294.55" font-family="Helvetica,sans-Serif" font-size="10.00">NLP / AI Services</text>
</g>
<g id="clust5" class="cluster">
<title>cluster_access</title>
<path fill="none" stroke="black" d="M926.5,-136.55C926.5,-136.55 1277,-136.55 1277,-136.55 1283,-136.55 1289,-142.55 1289,-148.55 1289,-148.55 1289,-363.55 1289,-363.55 1289,-369.55 1283,-375.55 1277,-375.55 1277,-375.55 926.5,-375.55 926.5,-375.55 920.5,-375.55 914.5,-369.55 914.5,-363.55 914.5,-363.55 914.5,-148.55 914.5,-148.55 914.5,-142.55 920.5,-136.55 926.5,-136.55"/>
<text text-anchor="middle" x="958.5" y="-363.55" font-family="Helvetica,sans-Serif" font-size="10.00">Access &amp; Apps</text>
</g>
<g id="clust6" class="cluster">
<title>cluster_legend</title>
<path fill="none" stroke="black" d="M43.5,-857.55C43.5,-857.55 150.5,-857.55 150.5,-857.55 156.5,-857.55 162.5,-863.55 162.5,-869.55 162.5,-869.55 162.5,-1132.55 162.5,-1132.55 162.5,-1138.55 156.5,-1144.55 150.5,-1144.55 150.5,-1144.55 43.5,-1144.55 43.5,-1144.55 37.5,-1144.55 31.5,-1138.55 31.5,-1132.55 31.5,-1132.55 31.5,-869.55 31.5,-869.55 31.5,-863.55 37.5,-857.55 43.5,-857.55"/>
<text text-anchor="middle" x="57.5" y="-1132.55" font-family="Helvetica,sans-Serif" font-size="10.00">Legend</text>
</g>
<!-- OpenStates\n(API/GraphQL) -->
<g id="node1" class="node">
<title>OpenStates\n(API/GraphQL)</title>
<path fill="none" stroke="black" d="M143,-766.55C143,-766.55 51,-766.55 51,-766.55 45,-766.55 39,-760.55 39,-754.55 39,-754.55 39,-740.55 39,-740.55 39,-734.55 45,-728.55 51,-728.55 51,-728.55 143,-728.55 143,-728.55 149,-728.55 155,-734.55 155,-740.55 155,-740.55 155,-754.55 155,-754.55 155,-760.55 149,-766.55 143,-766.55"/>
<text text-anchor="middle" x="97" y="-751.35" font-family="Helvetica,sans-Serif" font-size="14.00">OpenStates</text>
<text text-anchor="middle" x="97" y="-736.35" font-family="Helvetica,sans-Serif" font-size="14.00">(API/GraphQL)</text>
</g>
<!-- Connectors/Extractors\n(HTTP, bulk, scraping) -->
<g id="node10" class="node">
<title>Connectors/Extractors\n(HTTP, bulk, scraping)</title>
<path fill="none" stroke="black" d="M386,-598.55C386,-598.55 239,-598.55 239,-598.55 233,-598.55 227,-592.55 227,-586.55 227,-586.55 227,-572.55 227,-572.55 227,-566.55 233,-560.55 239,-560.55 239,-560.55 386,-560.55 386,-560.55 392,-560.55 398,-566.55 398,-572.55 398,-572.55 398,-586.55 398,-586.55 398,-592.55 392,-598.55 386,-598.55"/>
<text text-anchor="middle" x="312.5" y="-583.35" font-family="Helvetica,sans-Serif" font-size="14.00">Connectors/Extractors</text>
<text text-anchor="middle" x="312.5" y="-568.35" font-family="Helvetica,sans-Serif" font-size="14.00">(HTTP, bulk, scraping)</text>
</g>
<!-- OpenStates\n(API/GraphQL)&#45;&gt;Connectors/Extractors\n(HTTP, bulk, scraping) -->
<g id="edge1" class="edge">
<title>OpenStates\n(API/GraphQL)&#45;&gt;Connectors/Extractors\n(HTTP, bulk, scraping)</title>
<path fill="none" stroke="black" d="M155.4,-734.17C166.04,-730.36 176.71,-725.56 186,-719.55 232.1,-689.74 271.8,-638.68 293.6,-607.15"/>
<polygon fill="black" stroke="black" points="296.55,-609.05 299.27,-598.81 290.76,-605.11 296.55,-609.05"/>
</g>
<!-- OpenLegislation (NY)\nREST API -->
<g id="node2" class="node">
<title>OpenLegislation (NY)\nREST API</title>
<path fill="none" stroke="black" d="M166,-710.55C166,-710.55 28,-710.55 28,-710.55 22,-710.55 16,-704.55 16,-698.55 16,-698.55 16,-684.55 16,-684.55 16,-678.55 22,-672.55 28,-672.55 28,-672.55 166,-672.55 166,-672.55 172,-672.55 178,-678.55 178,-684.55 178,-684.55 178,-698.55 178,-698.55 178,-704.55 172,-710.55 166,-710.55"/>
<text text-anchor="middle" x="97" y="-695.35" font-family="Helvetica,sans-Serif" font-size="14.00">OpenLegislation (NY)</text>
<text text-anchor="middle" x="97" y="-680.35" font-family="Helvetica,sans-Serif" font-size="14.00">REST API</text>
</g>
<!-- OpenLegislation (NY)\nREST API&#45;&gt;Connectors/Extractors\n(HTTP, bulk, scraping) -->
<g id="edge2" class="edge">
<title>OpenLegislation (NY)\nREST API&#45;&gt;Connectors/Extractors\n(HTTP, bulk, scraping)</title>
<path fill="none" stroke="black" d="M165.08,-672.4C172.26,-669.71 179.36,-666.75 186,-663.55 219.6,-647.37 254.6,-623.24 279.08,-604.99"/>
<polygon fill="black" stroke="black" points="281.4,-607.62 287.28,-598.8 277.19,-602.03 281.4,-607.62"/>
</g>
<!-- Councilmatic\n(Local Cities) -->
<g id="node3" class="node">
<title>Councilmatic\n(Local Cities)</title>
<path fill="none" stroke="black" d="M138,-654.55C138,-654.55 56,-654.55 56,-654.55 50,-654.55 44,-648.55 44,-642.55 44,-642.55 44,-628.55 44,-628.55 44,-622.55 50,-616.55 56,-616.55 56,-616.55 138,-616.55 138,-616.55 144,-616.55 150,-622.55 150,-628.55 150,-628.55 150,-642.55 150,-642.55 150,-648.55 144,-654.55 138,-654.55"/>
<text text-anchor="middle" x="97" y="-639.35" font-family="Helvetica,sans-Serif" font-size="14.00">Councilmatic</text>
<text text-anchor="middle" x="97" y="-624.35" font-family="Helvetica,sans-Serif" font-size="14.00">(Local Cities)</text>
</g>
<!-- Councilmatic\n(Local Cities)&#45;&gt;Connectors/Extractors\n(HTTP, bulk, scraping) -->
<g id="edge3" class="edge">
<title>Councilmatic\n(Local Cities)&#45;&gt;Connectors/Extractors\n(HTTP, bulk, scraping)</title>
<path fill="none" stroke="black" d="M150.23,-621.85C173.87,-615.65 202.4,-608.17 228.84,-601.24"/>
<polygon fill="black" stroke="black" points="230.07,-604.53 238.86,-598.61 228.29,-597.76 230.07,-604.53"/>
</g>
<!-- CityScrapers\n(Meetings/Agendas) -->
<g id="node4" class="node">
<title>CityScrapers\n(Meetings/Agendas)</title>
<path fill="none" stroke="black" d="M162.5,-598.55C162.5,-598.55 31.5,-598.55 31.5,-598.55 25.5,-598.55 19.5,-592.55 19.5,-586.55 19.5,-586.55 19.5,-572.55 19.5,-572.55 19.5,-566.55 25.5,-560.55 31.5,-560.55 31.5,-560.55 162.5,-560.55 162.5,-560.55 168.5,-560.55 174.5,-566.55 174.5,-572.55 174.5,-572.55 174.5,-586.55 174.5,-586.55 174.5,-592.55 168.5,-598.55 162.5,-598.55"/>
<text text-anchor="middle" x="97" y="-583.35" font-family="Helvetica,sans-Serif" font-size="14.00">CityScrapers</text>
<text text-anchor="middle" x="97" y="-568.35" font-family="Helvetica,sans-Serif" font-size="14.00">(Meetings/Agendas)</text>
</g>
<!-- CityScrapers\n(Meetings/Agendas)&#45;&gt;Connectors/Extractors\n(HTTP, bulk, scraping) -->
<g id="edge4" class="edge">
<title>CityScrapers\n(Meetings/Agendas)&#45;&gt;Connectors/Extractors\n(HTTP, bulk, scraping)</title>
<path fill="none" stroke="black" d="M174.78,-579.55C188.34,-579.55 202.61,-579.55 216.6,-579.55"/>
<polygon fill="black" stroke="black" points="216.72,-583.05 226.72,-579.55 216.72,-576.05 216.72,-583.05"/>
</g>
<!-- govinfo / GPO\n(Record/Bills) -->
<g id="node5" class="node">
<title>govinfo / GPO\n(Record/Bills)</title>
<path fill="none" stroke="black" d="M141,-542.55C141,-542.55 53,-542.55 53,-542.55 47,-542.55 41,-536.55 41,-530.55 41,-530.55 41,-516.55 41,-516.55 41,-510.55 47,-504.55 53,-504.55 53,-504.55 141,-504.55 141,-504.55 147,-504.55 153,-510.55 153,-516.55 153,-516.55 153,-530.55 153,-530.55 153,-536.55 147,-542.55 141,-542.55"/>
<text text-anchor="middle" x="97" y="-527.35" font-family="Helvetica,sans-Serif" font-size="14.00">govinfo / GPO</text>
<text text-anchor="middle" x="97" y="-512.35" font-family="Helvetica,sans-Serif" font-size="14.00">(Record/Bills)</text>
</g>
<!-- govinfo / GPO\n(Record/Bills)&#45;&gt;Connectors/Extractors\n(HTTP, bulk, scraping) -->
<g id="edge5" class="edge">
<title>govinfo / GPO\n(Record/Bills)&#45;&gt;Connectors/Extractors\n(HTTP, bulk, scraping)</title>
<path fill="none" stroke="black" d="M153.26,-538.05C176.27,-544.08 203.49,-551.22 228.8,-557.86"/>
<polygon fill="black" stroke="black" points="228.2,-561.32 238.76,-560.48 229.98,-554.55 228.2,-561.32"/>
</g>
<!-- Congress.gov\n(Bulk Data) -->
<g id="node6" class="node">
<title>Congress.gov\n(Bulk Data)</title>
<path fill="none" stroke="black" d="M140.5,-486.55C140.5,-486.55 53.5,-486.55 53.5,-486.55 47.5,-486.55 41.5,-480.55 41.5,-474.55 41.5,-474.55 41.5,-460.55 41.5,-460.55 41.5,-454.55 47.5,-448.55 53.5,-448.55 53.5,-448.55 140.5,-448.55 140.5,-448.55 146.5,-448.55 152.5,-454.55 152.5,-460.55 152.5,-460.55 152.5,-474.55 152.5,-474.55 152.5,-480.55 146.5,-486.55 140.5,-486.55"/>
<text text-anchor="middle" x="97" y="-471.35" font-family="Helvetica,sans-Serif" font-size="14.00">Congress.gov</text>
<text text-anchor="middle" x="97" y="-456.35" font-family="Helvetica,sans-Serif" font-size="14.00">(Bulk Data)</text>
</g>
<!-- Congress.gov\n(Bulk Data)&#45;&gt;Connectors/Extractors\n(HTTP, bulk, scraping) -->
<g id="edge6" class="edge">
<title>Congress.gov\n(Bulk Data)&#45;&gt;Connectors/Extractors\n(HTTP, bulk, scraping)</title>
<path fill="none" stroke="black" d="M152.92,-482.39C164.09,-486.14 175.6,-490.54 186,-495.55 219.6,-511.74 254.6,-535.87 279.08,-554.12"/>
<polygon fill="black" stroke="black" points="277.19,-557.08 287.28,-560.31 281.4,-551.49 277.19,-557.08"/>
</g>
<!-- ProPublica\nCongress API -->
<g id="node7" class="node">
<title>ProPublica\nCongress API</title>
<path fill="none" stroke="black" d="M139,-430.55C139,-430.55 55,-430.55 55,-430.55 49,-430.55 43,-424.55 43,-418.55 43,-418.55 43,-404.55 43,-404.55 43,-398.55 49,-392.55 55,-392.55 55,-392.55 139,-392.55 139,-392.55 145,-392.55 151,-398.55 151,-404.55 151,-404.55 151,-418.55 151,-418.55 151,-424.55 145,-430.55 139,-430.55"/>
<text text-anchor="middle" x="97" y="-415.35" font-family="Helvetica,sans-Serif" font-size="14.00">ProPublica</text>
<text text-anchor="middle" x="97" y="-400.35" font-family="Helvetica,sans-Serif" font-size="14.00">Congress API</text>
</g>
<!-- ProPublica\nCongress API&#45;&gt;Connectors/Extractors\n(HTTP, bulk, scraping) -->
<g id="edge7" class="edge">
<title>ProPublica\nCongress API&#45;&gt;Connectors/Extractors\n(HTTP, bulk, scraping)</title>
<path fill="none" stroke="black" d="M151.24,-423.49C163.23,-427.51 175.5,-432.76 186,-439.55 232.1,-469.36 271.8,-520.43 293.6,-551.96"/>
<polygon fill="black" stroke="black" points="290.76,-554 299.27,-560.3 296.55,-550.06 290.76,-554"/>
</g>
<!-- OpenFEC\nCampaign Finance -->
<g id="node8" class="node">
<title>OpenFEC\nCampaign Finance</title>
<path fill="none" stroke="black" d="M157,-374.55C157,-374.55 37,-374.55 37,-374.55 31,-374.55 25,-368.55 25,-362.55 25,-362.55 25,-348.55 25,-348.55 25,-342.55 31,-336.55 37,-336.55 37,-336.55 157,-336.55 157,-336.55 163,-336.55 169,-342.55 169,-348.55 169,-348.55 169,-362.55 169,-362.55 169,-368.55 163,-374.55 157,-374.55"/>
<text text-anchor="middle" x="97" y="-359.35" font-family="Helvetica,sans-Serif" font-size="14.00">OpenFEC</text>
<text text-anchor="middle" x="97" y="-344.35" font-family="Helvetica,sans-Serif" font-size="14.00">Campaign Finance</text>
</g>
<!-- OpenFEC\nCampaign Finance&#45;&gt;Connectors/Extractors\n(HTTP, bulk, scraping) -->
<g id="edge8" class="edge">
<title>OpenFEC\nCampaign Finance&#45;&gt;Connectors/Extractors\n(HTTP, bulk, scraping)</title>
<path fill="none" stroke="black" d="M169.36,-373.38C175.27,-376.28 180.91,-379.65 186,-383.55 244.31,-428.31 283.12,-508.43 300.7,-551.06"/>
<polygon fill="black" stroke="black" points="297.54,-552.58 304.52,-560.55 304.03,-549.96 297.54,-552.58"/>
</g>
<!-- OpenElections\n(State Results) -->
<g id="node9" class="node">
<title>OpenElections\n(State Results)</title>
<path fill="none" stroke="black" d="M144,-822.55C144,-822.55 50,-822.55 50,-822.55 44,-822.55 38,-816.55 38,-810.55 38,-810.55 38,-796.55 38,-796.55 38,-790.55 44,-784.55 50,-784.55 50,-784.55 144,-784.55 144,-784.55 150,-784.55 156,-790.55 156,-796.55 156,-796.55 156,-810.55 156,-810.55 156,-816.55 150,-822.55 144,-822.55"/>
<text text-anchor="middle" x="97" y="-807.35" font-family="Helvetica,sans-Serif" font-size="14.00">OpenElections</text>
<text text-anchor="middle" x="97" y="-792.35" font-family="Helvetica,sans-Serif" font-size="14.00">(State Results)</text>
</g>
<!-- OpenElections\n(State Results)&#45;&gt;Connectors/Extractors\n(HTTP, bulk, scraping) -->
<g id="edge9" class="edge">
<title>OpenElections\n(State Results)&#45;&gt;Connectors/Extractors\n(HTTP, bulk, scraping)</title>
<path fill="none" stroke="black" d="M156.22,-791.34C166.79,-787.43 177.22,-782.29 186,-775.55 244.31,-730.8 283.12,-650.68 300.7,-608.05"/>
<polygon fill="black" stroke="black" points="304.03,-609.14 304.52,-598.56 297.54,-606.53 304.03,-609.14"/>
</g>
<!-- Open Civic Data Schema\n(OCD IDs) -->
<g id="node11" class="node">
<title>Open Civic Data Schema\n(OCD IDs)</title>
<path fill="none" stroke="black" d="M623,-598.55C623,-598.55 459,-598.55 459,-598.55 453,-598.55 447,-592.55 447,-586.55 447,-586.55 447,-572.55 447,-572.55 447,-566.55 453,-560.55 459,-560.55 459,-560.55 623,-560.55 623,-560.55 629,-560.55 635,-566.55 635,-572.55 635,-572.55 635,-586.55 635,-586.55 635,-592.55 629,-598.55 623,-598.55"/>
<text text-anchor="middle" x="541" y="-583.35" font-family="Helvetica,sans-Serif" font-size="14.00">Open Civic Data Schema</text>
<text text-anchor="middle" x="541" y="-568.35" font-family="Helvetica,sans-Serif" font-size="14.00">(OCD IDs)</text>
</g>
<!-- Connectors/Extractors\n(HTTP, bulk, scraping)&#45;&gt;Open Civic Data Schema\n(OCD IDs) -->
<g id="edge10" class="edge">
<title>Connectors/Extractors\n(HTTP, bulk, scraping)&#45;&gt;Open Civic Data Schema\n(OCD IDs)</title>
<path fill="none" stroke="black" d="M398.16,-579.55C410.65,-579.55 423.64,-579.55 436.47,-579.55"/>
<polygon fill="black" stroke="black" points="436.7,-583.05 446.7,-579.55 436.7,-576.05 436.7,-583.05"/>
</g>
<!-- Validation &amp; De&#45;dup\n(IDs, hashes) -->
<g id="node12" class="node">
<title>Validation &amp; De&#45;dup\n(IDs, hashes)</title>
<path fill="none" stroke="black" d="M840,-598.55C840,-598.55 709,-598.55 709,-598.55 703,-598.55 697,-592.55 697,-586.55 697,-586.55 697,-572.55 697,-572.55 697,-566.55 703,-560.55 709,-560.55 709,-560.55 840,-560.55 840,-560.55 846,-560.55 852,-566.55 852,-572.55 852,-572.55 852,-586.55 852,-586.55 852,-592.55 846,-598.55 840,-598.55"/>
<text text-anchor="middle" x="774.5" y="-583.35" font-family="Helvetica,sans-Serif" font-size="14.00">Validation &amp; De&#45;dup</text>
<text text-anchor="middle" x="774.5" y="-568.35" font-family="Helvetica,sans-Serif" font-size="14.00">(IDs, hashes)</text>
</g>
<!-- Open Civic Data Schema\n(OCD IDs)&#45;&gt;Validation &amp; De&#45;dup\n(IDs, hashes) -->
<g id="edge11" class="edge">
<title>Open Civic Data Schema\n(OCD IDs)&#45;&gt;Validation &amp; De&#45;dup\n(IDs, hashes)</title>
<path fill="none" stroke="black" d="M635.16,-579.55C652.12,-579.55 669.75,-579.55 686.52,-579.55"/>
<polygon fill="black" stroke="black" points="686.84,-583.05 696.84,-579.55 686.84,-576.05 686.84,-583.05"/>
</g>
<!-- Change Data Capture\n(diffing, upserts) -->
<g id="node13" class="node">
<title>Change Data Capture\n(diffing, upserts)</title>
<path fill="none" stroke="black" d="M1068,-598.55C1068,-598.55 926,-598.55 926,-598.55 920,-598.55 914,-592.55 914,-586.55 914,-586.55 914,-572.55 914,-572.55 914,-566.55 920,-560.55 926,-560.55 926,-560.55 1068,-560.55 1068,-560.55 1074,-560.55 1080,-566.55 1080,-572.55 1080,-572.55 1080,-586.55 1080,-586.55 1080,-592.55 1074,-598.55 1068,-598.55"/>
<text text-anchor="middle" x="997" y="-583.35" font-family="Helvetica,sans-Serif" font-size="14.00">Change Data Capture</text>
<text text-anchor="middle" x="997" y="-568.35" font-family="Helvetica,sans-Serif" font-size="14.00">(diffing, upserts)</text>
</g>
<!-- Validation &amp; De&#45;dup\n(IDs, hashes)&#45;&gt;Change Data Capture\n(diffing, upserts) -->
<g id="edge12" class="edge">
<title>Validation &amp; De&#45;dup\n(IDs, hashes)&#45;&gt;Change Data Capture\n(diffing, upserts)</title>
<path fill="none" stroke="black" d="M852,-579.55C868.74,-579.55 886.63,-579.55 903.91,-579.55"/>
<polygon fill="black" stroke="black" points="904,-583.05 914,-579.55 904,-576.05 904,-583.05"/>
</g>
<!-- Raw Lake\n(MinIO / FS) -->
<g id="node14" class="node">
<title>Raw Lake\n(MinIO / FS)</title>
<path fill="none" stroke="black" d="M578,-390.55C578,-390.55 504,-390.55 504,-390.55 498,-390.55 492,-384.55 492,-378.55 492,-378.55 492,-364.55 492,-364.55 492,-358.55 498,-352.55 504,-352.55 504,-352.55 578,-352.55 578,-352.55 584,-352.55 590,-358.55 590,-364.55 590,-364.55 590,-378.55 590,-378.55 590,-384.55 584,-390.55 578,-390.55"/>
<text text-anchor="middle" x="541" y="-375.35" font-family="Helvetica,sans-Serif" font-size="14.00">Raw Lake</text>
<text text-anchor="middle" x="541" y="-360.35" font-family="Helvetica,sans-Serif" font-size="14.00">(MinIO / FS)</text>
</g>
<!-- Change Data Capture\n(diffing, upserts)&#45;&gt;Raw Lake\n(MinIO / FS) -->
<g id="edge13" class="edge">
<title>Change Data Capture\n(diffing, upserts)&#45;&gt;Raw Lake\n(MinIO / FS)</title>
<path fill="none" stroke="black" d="M925.51,-560.55C858.05,-540.96 754.51,-507.15 671,-463.55 635.07,-444.79 597.77,-417.15 572.57,-397.07"/>
<polygon fill="black" stroke="black" points="574.49,-394.12 564.51,-390.57 570.1,-399.57 574.49,-394.12"/>
</g>
<!-- Warehouse\n(PostgreSQL) -->
<g id="node15" class="node">
<title>Warehouse\n(PostgreSQL)</title>
<path fill="none" stroke="black" d="M582.5,-278.55C582.5,-278.55 499.5,-278.55 499.5,-278.55 493.5,-278.55 487.5,-272.55 487.5,-266.55 487.5,-266.55 487.5,-252.55 487.5,-252.55 487.5,-246.55 493.5,-240.55 499.5,-240.55 499.5,-240.55 582.5,-240.55 582.5,-240.55 588.5,-240.55 594.5,-246.55 594.5,-252.55 594.5,-252.55 594.5,-266.55 594.5,-266.55 594.5,-272.55 588.5,-278.55 582.5,-278.55"/>
<text text-anchor="middle" x="541" y="-263.35" font-family="Helvetica,sans-Serif" font-size="14.00">Warehouse</text>
<text text-anchor="middle" x="541" y="-248.35" font-family="Helvetica,sans-Serif" font-size="14.00">(PostgreSQL)</text>
</g>
<!-- Change Data Capture\n(diffing, upserts)&#45;&gt;Warehouse\n(PostgreSQL) -->
<g id="edge14" class="edge">
<title>Change Data Capture\n(diffing, upserts)&#45;&gt;Warehouse\n(PostgreSQL)</title>
<path fill="none" stroke="black" d="M982.46,-560.25C963.81,-535.24 927.73,-492.29 886,-470.55 799.87,-425.7 741.88,-497.94 671,-431.55 622.85,-386.46 680.53,-335.3 635,-287.55 626.73,-278.88 615.88,-272.86 604.52,-268.7"/>
<polygon fill="black" stroke="black" points="605.49,-265.33 594.9,-265.62 603.36,-272 605.49,-265.33"/>
</g>
<!-- Search Index\n(Elasticsearch/OpenSearch) -->
<g id="node16" class="node">
<title>Search Index\n(Elasticsearch/OpenSearch)</title>
<path fill="none" stroke="black" d="M866,-278.55C866,-278.55 683,-278.55 683,-278.55 677,-278.55 671,-272.55 671,-266.55 671,-266.55 671,-252.55 671,-252.55 671,-246.55 677,-240.55 683,-240.55 683,-240.55 866,-240.55 866,-240.55 872,-240.55 878,-246.55 878,-252.55 878,-252.55 878,-266.55 878,-266.55 878,-272.55 872,-278.55 866,-278.55"/>
<text text-anchor="middle" x="774.5" y="-263.35" font-family="Helvetica,sans-Serif" font-size="14.00">Search Index</text>
<text text-anchor="middle" x="774.5" y="-248.35" font-family="Helvetica,sans-Serif" font-size="14.00">(Elasticsearch/OpenSearch)</text>
</g>
<!-- Warehouse\n(PostgreSQL)&#45;&gt;Search Index\n(Elasticsearch/OpenSearch) -->
<g id="edge15" class="edge">
<title>Warehouse\n(PostgreSQL)&#45;&gt;Search Index\n(Elasticsearch/OpenSearch)</title>
<path fill="none" stroke="black" d="M594.53,-259.55C614.29,-259.55 637.59,-259.55 660.73,-259.55"/>
<polygon fill="black" stroke="black" points="660.98,-263.05 670.98,-259.55 660.98,-256.05 660.98,-263.05"/>
</g>
<!-- Vector DB\n(pgvector/Qdrant) -->
<g id="node17" class="node">
<title>Vector DB\n(pgvector/Qdrant)</title>
<path fill="none" stroke="black" d="M833.5,-222.55C833.5,-222.55 715.5,-222.55 715.5,-222.55 709.5,-222.55 703.5,-216.55 703.5,-210.55 703.5,-210.55 703.5,-196.55 703.5,-196.55 703.5,-190.55 709.5,-184.55 715.5,-184.55 715.5,-184.55 833.5,-184.55 833.5,-184.55 839.5,-184.55 845.5,-190.55 845.5,-196.55 845.5,-196.55 845.5,-210.55 845.5,-210.55 845.5,-216.55 839.5,-222.55 833.5,-222.55"/>
<text text-anchor="middle" x="774.5" y="-207.35" font-family="Helvetica,sans-Serif" font-size="14.00">Vector DB</text>
<text text-anchor="middle" x="774.5" y="-192.35" font-family="Helvetica,sans-Serif" font-size="14.00">(pgvector/Qdrant)</text>
</g>
<!-- Warehouse\n(PostgreSQL)&#45;&gt;Vector DB\n(pgvector/Qdrant) -->
<g id="edge16" class="edge">
<title>Warehouse\n(PostgreSQL)&#45;&gt;Vector DB\n(pgvector/Qdrant)</title>
<path fill="none" stroke="black" d="M594.53,-246.85C623.67,-239.8 660.51,-230.89 693.19,-222.98"/>
<polygon fill="black" stroke="black" points="694.28,-226.32 703.18,-220.56 692.64,-219.51 694.28,-226.32"/>
</g>
<!-- Feature Store\n(entities, joins) -->
<g id="node20" class="node">
<title>Feature Store\n(entities, joins)</title>
<path fill="none" stroke="black" d="M822,-390.55C822,-390.55 727,-390.55 727,-390.55 721,-390.55 715,-384.55 715,-378.55 715,-378.55 715,-364.55 715,-364.55 715,-358.55 721,-352.55 727,-352.55 727,-352.55 822,-352.55 822,-352.55 828,-352.55 834,-358.55 834,-364.55 834,-364.55 834,-378.55 834,-378.55 834,-384.55 828,-390.55 822,-390.55"/>
<text text-anchor="middle" x="774.5" y="-375.35" font-family="Helvetica,sans-Serif" font-size="14.00">Feature Store</text>
<text text-anchor="middle" x="774.5" y="-360.35" font-family="Helvetica,sans-Serif" font-size="14.00">(entities, joins)</text>
</g>
<!-- Warehouse\n(PostgreSQL)&#45;&gt;Feature Store\n(entities, joins) -->
<g id="edge17" class="edge">
<title>Warehouse\n(PostgreSQL)&#45;&gt;Feature Store\n(entities, joins)</title>
<path fill="none" stroke="black" d="M594.76,-268.5C608.79,-272.66 623.29,-278.72 635,-287.55 658.63,-305.36 647.15,-326.05 671,-343.55 681.09,-350.96 693.04,-356.41 705.14,-360.41"/>
<polygon fill="black" stroke="black" points="704.27,-363.8 714.85,-363.33 706.28,-357.1 704.27,-363.8"/>
</g>
<!-- OpenDiscourse API\n(REST/GraphQL) -->
<g id="node26" class="node">
<title>OpenDiscourse API\n(REST/GraphQL)</title>
<path fill="none" stroke="black" d="M1059.5,-278.55C1059.5,-278.55 934.5,-278.55 934.5,-278.55 928.5,-278.55 922.5,-272.55 922.5,-266.55 922.5,-266.55 922.5,-252.55 922.5,-252.55 922.5,-246.55 928.5,-240.55 934.5,-240.55 934.5,-240.55 1059.5,-240.55 1059.5,-240.55 1065.5,-240.55 1071.5,-246.55 1071.5,-252.55 1071.5,-252.55 1071.5,-266.55 1071.5,-266.55 1071.5,-272.55 1065.5,-278.55 1059.5,-278.55"/>
<text text-anchor="middle" x="997" y="-263.35" font-family="Helvetica,sans-Serif" font-size="14.00">OpenDiscourse API</text>
<text text-anchor="middle" x="997" y="-248.35" font-family="Helvetica,sans-Serif" font-size="14.00">(REST/GraphQL)</text>
</g>
<!-- Warehouse\n(PostgreSQL)&#45;&gt;OpenDiscourse API\n(REST/GraphQL) -->
<g id="edge28" class="edge">
<title>Warehouse\n(PostgreSQL)&#45;&gt;OpenDiscourse API\n(REST/GraphQL)</title>
<path fill="none" stroke="black" d="M594.94,-266.2C609.46,-270.31 624.17,-276.92 635,-287.55 672.31,-324.18 628.75,-368.75 671,-399.55 748.22,-455.84 800.06,-441.32 886,-399.55 933.57,-376.43 966.69,-321.67 983.43,-287.9"/>
<polygon fill="black" stroke="black" points="986.74,-289.09 987.9,-278.56 980.42,-286.07 986.74,-289.09"/>
</g>
<!-- Search Index\n(Elasticsearch/OpenSearch)&#45;&gt;OpenDiscourse API\n(REST/GraphQL) -->
<g id="edge30" class="edge">
<title>Search Index\n(Elasticsearch/OpenSearch)&#45;&gt;OpenDiscourse API\n(REST/GraphQL)</title>
<path fill="none" stroke="black" d="M878,-259.55C889.46,-259.55 901.02,-259.55 912.2,-259.55"/>
<polygon fill="black" stroke="black" points="912.34,-263.05 922.34,-259.55 912.34,-256.05 912.34,-263.05"/>
</g>
<!-- Vector DB\n(pgvector/Qdrant)&#45;&gt;OpenDiscourse API\n(REST/GraphQL) -->
<g id="edge29" class="edge">
<title>Vector DB\n(pgvector/Qdrant)&#45;&gt;OpenDiscourse API\n(REST/GraphQL)</title>
<path fill="none" stroke="black" d="M845.65,-221.32C859.05,-224.71 872.96,-228.24 886,-231.55 894.63,-233.74 903.63,-236.03 912.62,-238.32"/>
<polygon fill="black" stroke="black" points="911.78,-241.72 922.34,-240.79 913.51,-234.93 911.78,-241.72"/>
</g>
<!-- Orchestration\n(Airflow/Prefect) -->
<g id="node18" class="node">
<title>Orchestration\n(Airflow/Prefect)</title>
<path fill="none" stroke="black" d="M826.5,-334.55C826.5,-334.55 722.5,-334.55 722.5,-334.55 716.5,-334.55 710.5,-328.55 710.5,-322.55 710.5,-322.55 710.5,-308.55 710.5,-308.55 710.5,-302.55 716.5,-296.55 722.5,-296.55 722.5,-296.55 826.5,-296.55 826.5,-296.55 832.5,-296.55 838.5,-302.55 838.5,-308.55 838.5,-308.55 838.5,-322.55 838.5,-322.55 838.5,-328.55 832.5,-334.55 826.5,-334.55"/>
<text text-anchor="middle" x="774.5" y="-319.35" font-family="Helvetica,sans-Serif" font-size="14.00">Orchestration</text>
<text text-anchor="middle" x="774.5" y="-304.35" font-family="Helvetica,sans-Serif" font-size="14.00">(Airflow/Prefect)</text>
</g>
<!-- Orchestration\n(Airflow/Prefect)&#45;&gt;Connectors/Extractors\n(HTTP, bulk, scraping) -->
<g id="edge18" class="edge">
<title>Orchestration\n(Airflow/Prefect)&#45;&gt;Connectors/Extractors\n(HTTP, bulk, scraping)</title>
<path fill="none" stroke="black" d="M710.31,-306.03C696.47,-301.91 682.53,-296.01 671,-287.55 647.15,-270.05 660.97,-245.73 635,-231.55 598.33,-211.53 481.12,-207.45 447,-231.55 416.58,-253.05 432.02,-275.65 419,-310.55 386.1,-398.71 344.77,-502.1 325.03,-551.07"/>
<polygon fill="black" stroke="black" points="321.76,-549.81 321.27,-560.39 328.26,-552.43 321.76,-549.81"/>
</g>
<!-- Orchestration\n(Airflow/Prefect)&#45;&gt;Change Data Capture\n(diffing, upserts) -->
<g id="edge19" class="edge">
<title>Orchestration\n(Airflow/Prefect)&#45;&gt;Change Data Capture\n(diffing, upserts)</title>
<path fill="none" stroke="black" d="M838.76,-321.63C855.53,-325.75 872.66,-332.51 886,-343.55 919.93,-371.64 965.94,-493.72 985.98,-550.41"/>
<polygon fill="black" stroke="black" points="982.8,-551.92 989.41,-560.2 989.41,-549.61 982.8,-551.92"/>
</g>
<!-- NLP Pipeline\n(tokenize, NER, linking) -->
<g id="node21" class="node">
<title>NLP Pipeline\n(tokenize, NER, linking)</title>
<path fill="none" stroke="black" d="M390,-225.55C390,-225.55 235,-225.55 235,-225.55 229,-225.55 223,-219.55 223,-213.55 223,-213.55 223,-199.55 223,-199.55 223,-193.55 229,-187.55 235,-187.55 235,-187.55 390,-187.55 390,-187.55 396,-187.55 402,-193.55 402,-199.55 402,-199.55 402,-213.55 402,-213.55 402,-219.55 396,-225.55 390,-225.55"/>
<text text-anchor="middle" x="312.5" y="-210.35" font-family="Helvetica,sans-Serif" font-size="14.00">NLP Pipeline</text>
<text text-anchor="middle" x="312.5" y="-195.35" font-family="Helvetica,sans-Serif" font-size="14.00">(tokenize, NER, linking)</text>
</g>
<!-- Orchestration\n(Airflow/Prefect)&#45;&gt;NLP Pipeline\n(tokenize, NER, linking) -->
<g id="edge20" class="edge">
<title>Orchestration\n(Airflow/Prefect)&#45;&gt;NLP Pipeline\n(tokenize, NER, linking)</title>
<path fill="none" stroke="black" d="M710.41,-307.95C696.18,-303.77 682.03,-297.36 671,-287.55 639.11,-259.21 670.38,-222.41 635,-198.55 599.87,-174.87 493.41,-182.08 412.53,-191.87"/>
<polygon fill="black" stroke="black" points="411.8,-188.44 402.3,-193.14 412.66,-195.39 411.8,-188.44"/>
</g>
<!-- Observability\n(Prometheus/Loki) -->
<g id="node19" class="node">
<title>Observability\n(Prometheus/Loki)</title>
<path fill="none" stroke="black" d="M600,-334.55C600,-334.55 482,-334.55 482,-334.55 476,-334.55 470,-328.55 470,-322.55 470,-322.55 470,-308.55 470,-308.55 470,-302.55 476,-296.55 482,-296.55 482,-296.55 600,-296.55 600,-296.55 606,-296.55 612,-302.55 612,-308.55 612,-308.55 612,-322.55 612,-322.55 612,-328.55 606,-334.55 600,-334.55"/>
<text text-anchor="middle" x="541" y="-319.35" font-family="Helvetica,sans-Serif" font-size="14.00">Observability</text>
<text text-anchor="middle" x="541" y="-304.35" font-family="Helvetica,sans-Serif" font-size="14.00">(Prometheus/Loki)</text>
</g>
<!-- Observability\n(Prometheus/Loki)&#45;&gt;Orchestration\n(Airflow/Prefect) -->
<g id="edge21" class="edge">
<title>Observability\n(Prometheus/Loki)&#45;&gt;Orchestration\n(Airflow/Prefect)</title>
<path fill="none" stroke="black" d="M612.09,-315.55C639.94,-315.55 671.99,-315.55 700.16,-315.55"/>
<polygon fill="black" stroke="black" points="700.35,-319.05 710.35,-315.55 700.35,-312.05 700.35,-319.05"/>
</g>
<!-- Observability\n(Prometheus/Loki)&#45;&gt;OpenDiscourse API\n(REST/GraphQL) -->
<g id="edge22" class="edge">
<title>Observability\n(Prometheus/Loki)&#45;&gt;OpenDiscourse API\n(REST/GraphQL)</title>
<path fill="none" stroke="black" d="M612.21,-329.11C620.52,-332.82 628.39,-337.54 635,-343.55 666.28,-371.97 635.92,-408 671,-431.55 750.34,-484.82 802.18,-477.44 886,-431.55 941.75,-401.03 973.37,-328.89 987.31,-288.4"/>
<polygon fill="black" stroke="black" points="990.65,-289.43 990.48,-278.83 984.01,-287.22 990.65,-289.43"/>
</g>
<!-- Feature Store\n(entities, joins)&#45;&gt;OpenDiscourse API\n(REST/GraphQL) -->
<g id="edge31" class="edge">
<title>Feature Store\n(entities, joins)&#45;&gt;OpenDiscourse API\n(REST/GraphQL)</title>
<path fill="none" stroke="black" d="M834.12,-361.35C851.34,-357.13 869.87,-351.35 886,-343.55 916.89,-328.63 947.53,-304.23 968.6,-285.56"/>
<polygon fill="black" stroke="black" points="971.11,-288.01 976.19,-278.72 966.42,-282.82 971.11,-288.01"/>
</g>
<!-- NLP Pipeline\n(tokenize, NER, linking)&#45;&gt;Warehouse\n(PostgreSQL) -->
<g id="edge23" class="edge">
<title>NLP Pipeline\n(tokenize, NER, linking)&#45;&gt;Warehouse\n(PostgreSQL)</title>
<path fill="none" stroke="black" d="M394.95,-225.61C422.16,-231.98 452.03,-238.97 477.56,-244.94"/>
<polygon fill="black" stroke="black" points="476.94,-248.39 487.48,-247.26 478.54,-241.58 476.94,-248.39"/>
</g>
<!-- Embeddings Service\n(Ollama/LocalAI) -->
<g id="node22" class="node">
<title>Embeddings Service\n(Ollama/LocalAI)</title>
<path fill="none" stroke="black" d="M380,-169.55C380,-169.55 245,-169.55 245,-169.55 239,-169.55 233,-163.55 233,-157.55 233,-157.55 233,-143.55 233,-143.55 233,-137.55 239,-131.55 245,-131.55 245,-131.55 380,-131.55 380,-131.55 386,-131.55 392,-137.55 392,-143.55 392,-143.55 392,-157.55 392,-157.55 392,-163.55 386,-169.55 380,-169.55"/>
<text text-anchor="middle" x="312.5" y="-154.35" font-family="Helvetica,sans-Serif" font-size="14.00">Embeddings Service</text>
<text text-anchor="middle" x="312.5" y="-139.35" font-family="Helvetica,sans-Serif" font-size="14.00">(Ollama/LocalAI)</text>
</g>
<!-- Embeddings Service\n(Ollama/LocalAI)&#45;&gt;Vector DB\n(pgvector/Qdrant) -->
<g id="edge24" class="edge">
<title>Embeddings Service\n(Ollama/LocalAI)&#45;&gt;Vector DB\n(pgvector/Qdrant)</title>
<path fill="none" stroke="black" d="M392.04,-147.13C457.49,-145.67 552.94,-146.8 635,-160.55 661.41,-164.98 689.78,-173.15 713.92,-181.19"/>
<polygon fill="black" stroke="black" points="713.05,-184.59 723.64,-184.49 715.3,-177.96 713.05,-184.59"/>
</g>
<!-- RAG Service\n(LangChain/LangGraph) -->
<g id="node23" class="node">
<title>RAG Service\n(LangChain/LangGraph)</title>
<path fill="none" stroke="black" d="M391.5,-113.55C391.5,-113.55 233.5,-113.55 233.5,-113.55 227.5,-113.55 221.5,-107.55 221.5,-101.55 221.5,-101.55 221.5,-87.55 221.5,-87.55 221.5,-81.55 227.5,-75.55 233.5,-75.55 233.5,-75.55 391.5,-75.55 391.5,-75.55 397.5,-75.55 403.5,-81.55 403.5,-87.55 403.5,-87.55 403.5,-101.55 403.5,-101.55 403.5,-107.55 397.5,-113.55 391.5,-113.55"/>
<text text-anchor="middle" x="312.5" y="-98.35" font-family="Helvetica,sans-Serif" font-size="14.00">RAG Service</text>
<text text-anchor="middle" x="312.5" y="-83.35" font-family="Helvetica,sans-Serif" font-size="14.00">(LangChain/LangGraph)</text>
</g>
<!-- RAG Service\n(LangChain/LangGraph)&#45;&gt;OpenDiscourse API\n(REST/GraphQL) -->
<g id="edge25" class="edge">
<title>RAG Service\n(LangChain/LangGraph)&#45;&gt;OpenDiscourse API\n(REST/GraphQL)</title>
<path fill="none" stroke="black" d="M403.52,-84.27C523.7,-75.25 738.51,-75.98 886,-172.55 906.02,-185.66 896.39,-202.35 914,-218.55 921.04,-225.03 929.3,-230.73 937.81,-235.65"/>
<polygon fill="black" stroke="black" points="936.28,-238.8 946.73,-240.51 939.62,-232.66 936.28,-238.8"/>
</g>
<!-- Topic/Sentiment/Similarity -->
<g id="node24" class="node">
<title>Topic/Sentiment/Similarity</title>
<path fill="none" stroke="black" d="M399,-279.55C399,-279.55 226,-279.55 226,-279.55 220,-279.55 214,-273.55 214,-267.55 214,-267.55 214,-255.55 214,-255.55 214,-249.55 220,-243.55 226,-243.55 226,-243.55 399,-243.55 399,-243.55 405,-243.55 411,-249.55 411,-255.55 411,-255.55 411,-267.55 411,-267.55 411,-273.55 405,-279.55 399,-279.55"/>
<text text-anchor="middle" x="312.5" y="-257.85" font-family="Helvetica,sans-Serif" font-size="14.00">Topic/Sentiment/Similarity</text>
</g>
<!-- Topic/Sentiment/Similarity&#45;&gt;Warehouse\n(PostgreSQL) -->
<g id="edge26" class="edge">
<title>Topic/Sentiment/Similarity&#45;&gt;Warehouse\n(PostgreSQL)</title>
<path fill="none" stroke="black" d="M411.2,-260.69C433.63,-260.49 456.89,-260.29 477.37,-260.11"/>
<polygon fill="black" stroke="black" points="477.53,-263.61 487.5,-260.02 477.47,-256.61 477.53,-263.61"/>
</g>
<!-- Entity Graph\n(Neo4j/JanusGraph) -->
<g id="node25" class="node">
<title>Entity Graph\n(Neo4j/JanusGraph)</title>
<path fill="none" stroke="black" d="M376.5,-57.55C376.5,-57.55 248.5,-57.55 248.5,-57.55 242.5,-57.55 236.5,-51.55 236.5,-45.55 236.5,-45.55 236.5,-31.55 236.5,-31.55 236.5,-25.55 242.5,-19.55 248.5,-19.55 248.5,-19.55 376.5,-19.55 376.5,-19.55 382.5,-19.55 388.5,-25.55 388.5,-31.55 388.5,-31.55 388.5,-45.55 388.5,-45.55 388.5,-51.55 382.5,-57.55 376.5,-57.55"/>
<text text-anchor="middle" x="312.5" y="-42.35" font-family="Helvetica,sans-Serif" font-size="14.00">Entity Graph</text>
<text text-anchor="middle" x="312.5" y="-27.35" font-family="Helvetica,sans-Serif" font-size="14.00">(Neo4j/JanusGraph)</text>
</g>
<!-- Entity Graph\n(Neo4j/JanusGraph)&#45;&gt;OpenDiscourse API\n(REST/GraphQL) -->
<g id="edge27" class="edge">
<title>Entity Graph\n(Neo4j/JanusGraph)&#45;&gt;OpenDiscourse API\n(REST/GraphQL)</title>
<path fill="none" stroke="black" d="M388.74,-20.61C509.57,3.36 747.34,29.82 886,-92.55 929.01,-130.51 878.7,-173.34 914,-218.55 918.96,-224.9 925.16,-230.35 931.93,-234.99"/>
<polygon fill="black" stroke="black" points="930.4,-238.16 940.74,-240.46 934.09,-232.21 930.4,-238.16"/>
</g>
<!-- Events/Webhooks -->
<g id="node27" class="node">
<title>Events/Webhooks</title>
<path fill="none" stroke="black" d="M1256.5,-180.55C1256.5,-180.55 1140.5,-180.55 1140.5,-180.55 1134.5,-180.55 1128.5,-174.55 1128.5,-168.55 1128.5,-168.55 1128.5,-156.55 1128.5,-156.55 1128.5,-150.55 1134.5,-144.55 1140.5,-144.55 1140.5,-144.55 1256.5,-144.55 1256.5,-144.55 1262.5,-144.55 1268.5,-150.55 1268.5,-156.55 1268.5,-156.55 1268.5,-168.55 1268.5,-168.55 1268.5,-174.55 1262.5,-180.55 1256.5,-180.55"/>
<text text-anchor="middle" x="1198.5" y="-158.85" font-family="Helvetica,sans-Serif" font-size="14.00">Events/Webhooks</text>
</g>
<!-- OpenDiscourse API\n(REST/GraphQL)&#45;&gt;Events/Webhooks -->
<g id="edge34" class="edge">
<title>OpenDiscourse API\n(REST/GraphQL)&#45;&gt;Events/Webhooks</title>
<path fill="none" stroke="black" d="M1048.87,-240.39C1062.16,-234.33 1076.08,-226.98 1088,-218.55 1102.63,-208.21 1100.83,-199.09 1116,-189.55 1118.48,-187.99 1121.07,-186.51 1123.72,-185.11"/>
<polygon fill="black" stroke="black" points="1125.5,-188.13 1132.97,-180.62 1122.45,-181.83 1125.5,-188.13"/>
</g>
<!-- Dashboard &amp; BI\n(Metabase/Grafana) -->
<g id="node28" class="node">
<title>Dashboard &amp; BI\n(Metabase/Grafana)</title>
<path fill="none" stroke="black" d="M1263.5,-236.55C1263.5,-236.55 1133.5,-236.55 1133.5,-236.55 1127.5,-236.55 1121.5,-230.55 1121.5,-224.55 1121.5,-224.55 1121.5,-210.55 1121.5,-210.55 1121.5,-204.55 1127.5,-198.55 1133.5,-198.55 1133.5,-198.55 1263.5,-198.55 1263.5,-198.55 1269.5,-198.55 1275.5,-204.55 1275.5,-210.55 1275.5,-210.55 1275.5,-224.55 1275.5,-224.55 1275.5,-230.55 1269.5,-236.55 1263.5,-236.55"/>
<text text-anchor="middle" x="1198.5" y="-221.35" font-family="Helvetica,sans-Serif" font-size="14.00">Dashboard &amp; BI</text>
<text text-anchor="middle" x="1198.5" y="-206.35" font-family="Helvetica,sans-Serif" font-size="14.00">(Metabase/Grafana)</text>
</g>
<!-- OpenDiscourse API\n(REST/GraphQL)&#45;&gt;Dashboard &amp; BI\n(Metabase/Grafana) -->
<g id="edge33" class="edge">
<title>OpenDiscourse API\n(REST/GraphQL)&#45;&gt;Dashboard &amp; BI\n(Metabase/Grafana)</title>
<path fill="none" stroke="black" d="M1071.72,-244.03C1084.63,-241.31 1098.17,-238.46 1111.39,-235.68"/>
<polygon fill="black" stroke="black" points="1112.35,-239.06 1121.41,-233.57 1110.91,-232.21 1112.35,-239.06"/>
</g>
<!-- Frontend UI\n(Next.js) -->
<g id="node30" class="node">
<title>Frontend UI\n(Next.js)</title>
<path fill="none" stroke="black" d="M1235,-292.55C1235,-292.55 1162,-292.55 1162,-292.55 1156,-292.55 1150,-286.55 1150,-280.55 1150,-280.55 1150,-266.55 1150,-266.55 1150,-260.55 1156,-254.55 1162,-254.55 1162,-254.55 1235,-254.55 1235,-254.55 1241,-254.55 1247,-260.55 1247,-266.55 1247,-266.55 1247,-280.55 1247,-280.55 1247,-286.55 1241,-292.55 1235,-292.55"/>
<text text-anchor="middle" x="1198.5" y="-277.35" font-family="Helvetica,sans-Serif" font-size="14.00">Frontend UI</text>
<text text-anchor="middle" x="1198.5" y="-262.35" font-family="Helvetica,sans-Serif" font-size="14.00">(Next.js)</text>
</g>
<!-- OpenDiscourse API\n(REST/GraphQL)&#45;&gt;Frontend UI\n(Next.js) -->
<g id="edge32" class="edge">
<title>OpenDiscourse API\n(REST/GraphQL)&#45;&gt;Frontend UI\n(Next.js)</title>
<path fill="none" stroke="black" d="M1071.72,-264.73C1094.14,-266.3 1118.44,-268.01 1139.65,-269.49"/>
<polygon fill="black" stroke="black" points="1139.57,-273 1149.79,-270.21 1140.06,-266.01 1139.57,-273"/>
</g>
<!-- Data Products\n(Parquet/CSV dumps) -->
<g id="node31" class="node">
<title>Data Products\n(Parquet/CSV dumps)</title>
<path fill="none" stroke="black" d="M1269,-348.55C1269,-348.55 1128,-348.55 1128,-348.55 1122,-348.55 1116,-342.55 1116,-336.55 1116,-336.55 1116,-322.55 1116,-322.55 1116,-316.55 1122,-310.55 1128,-310.55 1128,-310.55 1269,-310.55 1269,-310.55 1275,-310.55 1281,-316.55 1281,-322.55 1281,-322.55 1281,-336.55 1281,-336.55 1281,-342.55 1275,-348.55 1269,-348.55"/>
<text text-anchor="middle" x="1198.5" y="-333.35" font-family="Helvetica,sans-Serif" font-size="14.00">Data Products</text>
<text text-anchor="middle" x="1198.5" y="-318.35" font-family="Helvetica,sans-Serif" font-size="14.00">(Parquet/CSV dumps)</text>
</g>
<!-- OpenDiscourse API\n(REST/GraphQL)&#45;&gt;Data Products\n(Parquet/CSV dumps) -->
<g id="edge35" class="edge">
<title>OpenDiscourse API\n(REST/GraphQL)&#45;&gt;Data Products\n(Parquet/CSV dumps)</title>
<path fill="none" stroke="black" d="M1051.12,-278.6C1071.4,-285.84 1094.76,-294.12 1116,-301.55 1121.21,-303.37 1126.61,-305.25 1132.03,-307.13"/>
<polygon fill="black" stroke="black" points="1131.2,-310.55 1141.79,-310.51 1133.49,-303.93 1131.2,-310.55"/>
</g>
<!-- Admin &amp; Auth\n(Keycloak) -->
<g id="node29" class="node">
<title>Admin &amp; Auth\n(Keycloak)</title>
<path fill="none" stroke="black" d="M1042,-209.55C1042,-209.55 952,-209.55 952,-209.55 946,-209.55 940,-203.55 940,-197.55 940,-197.55 940,-183.55 940,-183.55 940,-177.55 946,-171.55 952,-171.55 952,-171.55 1042,-171.55 1042,-171.55 1048,-171.55 1054,-177.55 1054,-183.55 1054,-183.55 1054,-197.55 1054,-197.55 1054,-203.55 1048,-209.55 1042,-209.55"/>
<text text-anchor="middle" x="997" y="-194.35" font-family="Helvetica,sans-Serif" font-size="14.00">Admin &amp; Auth</text>
<text text-anchor="middle" x="997" y="-179.35" font-family="Helvetica,sans-Serif" font-size="14.00">(Keycloak)</text>
</g>
<!-- Data Sources -->
<g id="node32" class="node">
<title>Data Sources</title>
<path fill="none" stroke="black" d="M139,-1117.55C139,-1117.55 55,-1117.55 55,-1117.55 49,-1117.55 43,-1111.55 43,-1105.55 43,-1105.55 43,-1093.55 43,-1093.55 43,-1087.55 49,-1081.55 55,-1081.55 55,-1081.55 139,-1081.55 139,-1081.55 145,-1081.55 151,-1087.55 151,-1093.55 151,-1093.55 151,-1105.55 151,-1105.55 151,-1111.55 145,-1117.55 139,-1117.55"/>
<text text-anchor="middle" x="97" y="-1095.85" font-family="Helvetica,sans-Serif" font-size="14.00">Data Sources</text>
</g>
<!-- ETL/Normalize -->
<g id="node33" class="node">
<title>ETL/Normalize</title>
<path fill="none" stroke="black" d="M142.5,-1063.55C142.5,-1063.55 51.5,-1063.55 51.5,-1063.55 45.5,-1063.55 39.5,-1057.55 39.5,-1051.55 39.5,-1051.55 39.5,-1039.55 39.5,-1039.55 39.5,-1033.55 45.5,-1027.55 51.5,-1027.55 51.5,-1027.55 142.5,-1027.55 142.5,-1027.55 148.5,-1027.55 154.5,-1033.55 154.5,-1039.55 154.5,-1039.55 154.5,-1051.55 154.5,-1051.55 154.5,-1057.55 148.5,-1063.55 142.5,-1063.55"/>
<text text-anchor="middle" x="97" y="-1041.85" font-family="Helvetica,sans-Serif" font-size="14.00">ETL/Normalize</text>
</g>
<!-- Storage/Index -->
<g id="node34" class="node">
<title>Storage/Index</title>
<path fill="none" stroke="black" d="M142,-1009.55C142,-1009.55 52,-1009.55 52,-1009.55 46,-1009.55 40,-1003.55 40,-997.55 40,-997.55 40,-985.55 40,-985.55 40,-979.55 46,-973.55 52,-973.55 52,-973.55 142,-973.55 142,-973.55 148,-973.55 154,-979.55 154,-985.55 154,-985.55 154,-997.55 154,-997.55 154,-1003.55 148,-1009.55 142,-1009.55"/>
<text text-anchor="middle" x="97" y="-987.85" font-family="Helvetica,sans-Serif" font-size="14.00">Storage/Index</text>
</g>
<!-- AI/NLP -->
<g id="node35" class="node">
<title>AI/NLP</title>
<path fill="none" stroke="black" d="M116,-955.55C116,-955.55 78,-955.55 78,-955.55 72,-955.55 66,-949.55 66,-943.55 66,-943.55 66,-931.55 66,-931.55 66,-925.55 72,-919.55 78,-919.55 78,-919.55 116,-919.55 116,-919.55 122,-919.55 128,-925.55 128,-931.55 128,-931.55 128,-943.55 128,-943.55 128,-949.55 122,-955.55 116,-955.55"/>
<text text-anchor="middle" x="97" y="-933.85" font-family="Helvetica,sans-Serif" font-size="14.00">AI/NLP</text>
</g>
<!-- Access/UI -->
<g id="node36" class="node">
<title>Access/UI</title>
<path fill="none" stroke="black" d="M126.5,-901.55C126.5,-901.55 67.5,-901.55 67.5,-901.55 61.5,-901.55 55.5,-895.55 55.5,-889.55 55.5,-889.55 55.5,-877.55 55.5,-877.55 55.5,-871.55 61.5,-865.55 67.5,-865.55 67.5,-865.55 126.5,-865.55 126.5,-865.55 132.5,-865.55 138.5,-871.55 138.5,-877.55 138.5,-877.55 138.5,-889.55 138.5,-889.55 138.5,-895.55 132.5,-901.55 126.5,-901.55"/>
<text text-anchor="middle" x="97" y="-879.85" font-family="Helvetica,sans-Serif" font-size="14.00">Access/UI</text>
</g>
</g>
</svg>
